<?xml version="1.0" encoding="UTF-8"?>
<svg width="700pt" height="700pt" version="1.1" viewBox="0 0 700 600" xmlns="http://www.w3.org/2000/svg" xmlns:xlink="http://www.w3.org/1999/xlink">
 <g>
  <path d="m118.77 423.79h88.125v88.125h-88.125z" fill-rule="evenodd"/>
  <path d="m212.94 329.61h88.125v88.125h-88.125z" fill-rule="evenodd"/>
  <path d="m212.94 423.79h88.125v88.125h-88.125z" fill-rule="evenodd"/>
  <path d="m305.43 235.43h88.125v88.125h-88.125z" fill-rule="evenodd"/>
  <path d="m305.43 329.61h88.125v88.125h-88.125z" fill-rule="evenodd"/>
  <path d="m305.43 423.79h88.125v88.125h-88.125z" fill-rule="evenodd"/>
  <path d="m399.61 142.94h88.125v88.125h-88.125z" fill-rule="evenodd"/>
  <path d="m399.61 235.43h88.125v88.125h-88.125z" fill-rule="evenodd"/>
  <path d="m399.61 329.61h88.125v88.125h-88.125z" fill-rule="evenodd"/>
  <path d="m399.61 423.79h88.125v88.125h-88.125z" fill-rule="evenodd"/>
  <path d="m493.79 48.77h88.125v88.125h-88.125z" fill-rule="evenodd"/>
  <path d="m493.79 142.94h88.125v88.125h-88.125z" fill-rule="evenodd"/>
  <path d="m493.79 235.43h88.125v88.125h-88.125z" fill-rule="evenodd"/>
  <path d="m493.79 329.61h88.125v88.125h-88.125z" fill-rule="evenodd"/>
  <path d="m493.79 423.79h88.125v88.125h-88.125z" fill-rule="evenodd"/>
  <use x="70" y="585.226562" xlink:href="#u"/>
  <use x="76.171875" y="585.226562" xlink:href="#c"/>
  <use x="80.316406" y="585.226562" xlink:href="#b"/>
  <use x="86.019531" y="585.226562" xlink:href="#a"/>
  <use x="91.695312" y="585.226562" xlink:href="#d"/>
  <use x="95.714844" y="585.226562" xlink:href="#b"/>
  <use x="101.417969" y="585.226562" xlink:href="#g"/>
  <use x="110.363281" y="585.226562" xlink:href="#k"/>
  <use x="116.382812" y="585.226562" xlink:href="#j"/>
  <use x="124.789062" y="585.226562" xlink:href="#i"/>
  <use x="131.265625" y="585.226562" xlink:href="#a"/>
  <use x="136.9375" y="585.226562" xlink:href="#h"/>
  <use x="140.597656" y="585.226562" xlink:href="#t"/>
  <use x="143.480469" y="585.226562" xlink:href="#f"/>
  <use x="149.464844" y="585.226562" xlink:href="#a"/>
  <use x="158.066406" y="585.226562" xlink:href="#s"/>
  <use x="164.574219" y="585.226562" xlink:href="#f"/>
  <use x="170.558594" y="585.226562" xlink:href="#g"/>
  <use x="176.578125" y="585.226562" xlink:href="#c"/>
  <use x="180.726562" y="585.226562" xlink:href="#a"/>
  <use x="70" y="593.632812" xlink:href="#h"/>
  <use x="73.65625" y="593.632812" xlink:href="#c"/>
  <use x="77.804688" y="593.632812" xlink:href="#e"/>
  <use x="83.582031" y="593.632812" xlink:href="#r"/>
  <use x="95.269531" y="593.632812" xlink:href="#d"/>
  <use x="99.289062" y="593.632812" xlink:href="#q"/>
  <use x="105.277344" y="593.632812" xlink:href="#b"/>
  <use x="113.90625" y="593.632812" xlink:href="#p"/>
  <use x="120.941406" y="593.632812" xlink:href="#e"/>
  <use x="126.71875" y="593.632812" xlink:href="#o"/>
  <use x="132.707031" y="593.632812" xlink:href="#f"/>
  <use x="141.621094" y="593.632812" xlink:href="#n"/>
  <use x="147.78125" y="593.632812" xlink:href="#c"/>
  <use x="151.929688" y="593.632812" xlink:href="#e"/>
  <use x="157.707031" y="593.632812" xlink:href="#m"/>
  <use x="160.585938" y="593.632812" xlink:href="#b"/>
  <use x="166.289062" y="593.632812" xlink:href="#l"/>
  <use x="171.273438" y="593.632812" xlink:href="#d"/>
 </g>
</svg>
